<svg width="414" height="119" viewBox="0 0 414 119" fill="none" xmlns="http://www.w3.org/2000/svg">
<g clip-path="url(#clip0_8_619)">
<path d="M-114.753 -10.2141L-105.39 -0.636706C-96.0262 9.12049 -77.2994 28.0054 -58.5726 32.9514C-39.8458 37.8975 -21.119 28.0054 -2.39226 28.1403C16.3345 28.0054 35.0613 37.8975 53.7881 37.7626C72.5149 37.8975 91.2416 28.0054 109.968 35.3345C128.695 42.3939 147.422 66.6745 166.149 76.1169C184.876 85.5594 203.602 81.063 222.329 78.5C241.056 76.1169 259.783 76.1169 278.509 66.5396C297.236 56.7824 315.963 37.8975 334.69 32.9514C353.417 28.0054 372.143 37.8975 390.87 40.1457C409.597 42.3939 428.324 37.8975 437.687 35.3345L447.05 32.9514V133.671H437.687C428.324 133.671 409.597 133.671 390.87 133.671C372.143 133.671 353.417 133.671 334.69 133.671C315.963 133.671 297.236 133.671 278.509 133.671C259.783 133.671 241.056 133.671 222.329 133.671C203.602 133.671 184.876 133.671 166.149 133.671C147.422 133.671 128.695 133.671 109.968 133.671C91.2416 133.671 72.5149 133.671 53.7881 133.671C35.0613 133.671 16.3345 133.671 -2.39226 133.671C-21.119 133.671 -39.8458 133.671 -58.5726 133.671C-77.2994 133.671 -96.0262 133.671 -105.39 133.671H-114.753V-10.2141Z" fill="#AB0909"/>
</g>
<defs>
<clipPath id="clip0_8_619">
<rect width="526" height="139" fill="white" transform="translate(-90)"/>
</clipPath>
</defs>
</svg>
