<svg width="414" height="168" viewBox="0 0 414 168" fill="none" xmlns="http://www.w3.org/2000/svg">
<path d="M519 33.6L509.917 27.9825C500.833 22.575 482.667 11.025 464.5 16.8C446.333 22.575 428.167 44.625 410 64.4175C391.833 84 373.667 100.8 355.5 111.982C337.333 123.375 319.167 128.625 301 123.217C282.833 117.6 264.667 100.8 246.5 95.1825C228.333 89.775 210.167 95.025 192 89.6175C173.833 84 155.667 67.2 137.5 61.5825C119.333 56.175 101.167 61.425 83 67.2C64.8333 72.975 46.6667 78.225 28.5 78.3825C10.3333 78.225 -7.83331 72.975 -16.9166 69.9825L-26 67.2V0H-16.9166C-7.83331 0 10.3333 0 28.5 0C46.6667 0 64.8333 0 83 0C101.167 0 119.333 0 137.5 0C155.667 0 173.833 0 192 0C210.167 0 228.333 0 246.5 0C264.667 0 282.833 0 301 0C319.167 0 337.333 0 355.5 0C373.667 0 391.833 0 410 0C428.167 0 446.333 0 464.5 0C482.667 0 500.833 0 509.917 0H519V33.6Z" fill="#C00B0B"/>
</svg>
